<svg width="24" height="44" viewBox="0 0 24 44" fill="none" xmlns="http://www.w3.org/2000/svg">
<g clip-path="url(#clip0_3229_196)">
<path d="M13.38 29C13.02 30 11.19 30.22 9.87 29.42C8.34 28.47 7 26 6.42 25.64C5.63 25.16 2 25.11 2 25.11L5.77 15.2C5.77 15.2 8.86 16.93 10.86 16.47C11.4478 16.3013 11.9954 16.0156 12.47 15.63" stroke="#00AD8C" stroke-width="2" stroke-linecap="round" stroke-linejoin="round"/>
<path d="M15.53 27.32C15.6368 27.634 15.6358 27.9747 15.5271 28.288C15.4184 28.6014 15.2083 28.8695 14.93 29.05C13.53 29.81 12.03 27.78 11.6 27.48" stroke="#4D5566" stroke-width="2" stroke-linecap="round" stroke-linejoin="round"/>
<path d="M18 26C17.85 28 16.34 28 15.81 27.57C15.28 27.14 13.42 25.36 13.42 25.36" stroke="#4D5566" stroke-width="2" stroke-linecap="round" stroke-linejoin="round"/>
<path d="M14.19 18.69C15.69 20.06 19.13 22.28 19.58 24.07C20.24 26.75 18.47 26.44 18.47 26.44L14.91 22.89" stroke="#4D5566" stroke-width="2" stroke-linecap="round" stroke-linejoin="round"/>
<path d="M14.72 18.25C14.72 18.25 10.84 21.85 9.72002 20.32C8.60002 18.79 12 16.07 13.12 15.08C13.6 14.65 19.84 16.08 19.84 16.08L22.39 23.84L19.63 24.3" stroke="#4D5566" stroke-width="2" stroke-linecap="round" stroke-linejoin="round"/>
</g>
<defs>
<clipPath id="clip0_3229_196">
<rect width="22.39" height="16.88" fill="white" transform="translate(1 14)"/>
</clipPath>
</defs>
</svg>
